<svg width="9686" height="9414" viewBox="0 0 9686 9414" fill="none" xmlns="http://www.w3.org/2000/svg">
<rect width="9686" height="9414" fill="#1425A1"/>
<path fill-rule="evenodd" clip-rule="evenodd" d="M4608.12 4954.53C4609.75 4965.77 4625.92 4966.04 4656.64 4955.35L4659.9 4953.71C4661.8 4952.61 4664.11 4951.38 4666.83 4950.01C4669.55 4948.64 4672.68 4947.13 4676.21 4945.49C4679.74 4943.84 4683.14 4942.2 4686.4 4940.55C4689.67 4938.91 4692.66 4937.27 4695.37 4935.62L4701.9 4932.33L4704.35 4931.1C4708.15 4930.55 4710.87 4930.41 4712.5 4930.69C4714.4 4930.96 4717.39 4931.65 4721.47 4932.74C4725.55 4934.11 4728.4 4934.94 4730.03 4935.21C4744.71 4938.23 4758.85 4940.55 4772.44 4942.2C4786.3 4943.84 4798.53 4945.21 4809.14 4946.31C4818.23 4947.25 4827.83 4947.38 4837.93 4946.71C4848.08 4947.38 4857.73 4947.25 4866.87 4946.31C4877.52 4945.21 4889.81 4943.84 4903.74 4942.2C4917.4 4940.55 4931.6 4938.23 4946.35 4935.21C4947.99 4934.94 4950.85 4934.11 4954.95 4932.74C4959.05 4931.65 4962.05 4930.96 4963.96 4930.69C4965.6 4930.41 4968.33 4930.55 4972.16 4931.1L4974.62 4932.33L4981.17 4935.62C4983.9 4937.27 4986.91 4938.91 4990.18 4940.55C4993.46 4942.2 4996.88 4943.84 5000.43 4945.49C5003.98 4947.13 5007.12 4948.64 5009.85 4950.01C5012.58 4951.38 5014.9 4952.61 5016.81 4953.71L5020.09 4955.35C5050.95 4966.04 5067.21 4965.77 5068.84 4954.53C5068.84 4944.12 5062.02 4935.9 5048.36 4929.87C5034.43 4923.84 5016.68 4920.82 4995.1 4920.82C4993.46 4920.55 4991.82 4919.86 4990.18 4918.77C4988.27 4917.4 4986.09 4915.34 4983.63 4912.6C4982.54 4911.38 4981.55 4910.3 4980.67 4909.35L4981.61 4908.9C4992.76 4903.42 4998.87 4900.41 4999.96 4899.86C5027.15 4886.98 5053.11 4866.56 5077.84 4838.61C5102.85 4810.38 5122.69 4781.74 5137.37 4752.69C5152.32 4723.37 5162.65 4696.1 5168.36 4670.89C5171.34 4657.49 5173.78 4644.64 5175.67 4632.33C5178.14 4625.02 5180.22 4617.46 5181.92 4609.64C5186.29 4587.99 5186.15 4562.92 5181.51 4534.42C5176.59 4505.91 5166.49 4477 5151.19 4447.68C5140.04 4426.63 5126.86 4407.02 5111.65 4388.86C5103.23 4377.55 5093.87 4365.78 5083.55 4353.54C5091.71 4344.77 5104.07 4334.09 5120.66 4321.48C5137.24 4308.6 5150.42 4300.52 5160.21 4297.23C5162.65 4296.41 5165.92 4295.58 5169.99 4294.76C5174.07 4293.66 5177.06 4292.71 5178.96 4291.88C5180.87 4290.79 5181.82 4289.42 5181.82 4287.77C5181.27 4282.02 5169.86 4282.02 5147.57 4287.77C5138.87 4290.51 5127.59 4295.99 5113.72 4304.22C5099.86 4312.44 5087.9 4319.97 5077.84 4326.82C5068.06 4333.4 5062.89 4336.69 5062.35 4336.69L5052.56 4327.65C5030.81 4312.03 5008.93 4299.42 4986.91 4289.83C4965.17 4279.96 4943.15 4273.25 4920.86 4269.69C4918.63 4269.3 4916.47 4268.92 4914.36 4268.57C4890.94 4263.1 4868.28 4260.6 4846.38 4261.05C4843.46 4261.1 4840.65 4261.14 4837.93 4261.2C4835.24 4261.14 4832.43 4261.1 4829.52 4261.05C4808.33 4260.61 4786.42 4262.96 4763.79 4268.12C4760.85 4268.61 4757.8 4269.13 4754.61 4269.69C4732.22 4273.25 4710.1 4279.96 4688.25 4289.83C4666.12 4299.42 4644.14 4312.03 4622.29 4327.65L4612.45 4336.69C4611.91 4336.69 4606.72 4333.4 4596.89 4326.82C4586.78 4319.97 4574.76 4312.44 4560.83 4304.22C4546.9 4295.99 4535.57 4290.51 4526.83 4287.77C4504.43 4282.02 4492.96 4282.02 4492.42 4287.77C4492.42 4289.42 4493.37 4290.79 4495.28 4291.88C4497.2 4292.71 4500.2 4293.66 4504.3 4294.76C4508.39 4295.58 4511.67 4296.41 4514.13 4297.23C4523.96 4300.52 4537.21 4308.6 4553.87 4321.48C4570.53 4334.09 4582.96 4344.77 4591.15 4353.54C4567.93 4380.95 4549.5 4406.02 4535.84 4428.77C4521.91 4451.24 4511.26 4475.08 4503.89 4500.3C4502.29 4505.75 4500.88 4511.25 4499.66 4516.8C4498.22 4522.69 4496.99 4528.56 4495.99 4534.42C4491.37 4562.92 4491.23 4587.99 4495.58 4609.64L4495.68 4610.1C4497.67 4628.94 4501.09 4649.2 4505.94 4670.89C4511.67 4696.1 4522.05 4723.37 4537.07 4752.69C4551.82 4781.74 4571.76 4810.38 4596.89 4838.61C4621.74 4866.56 4647.82 4886.98 4675.14 4899.86C4676.23 4900.41 4682.37 4903.42 4693.57 4908.9C4694.22 4909.21 4694.84 4909.51 4695.46 4909.8C4695.18 4910.11 4694.89 4910.43 4694.58 4910.76C4694.06 4911.34 4693.51 4911.95 4692.93 4912.6C4690.48 4915.34 4688.31 4917.4 4686.4 4918.77C4684.77 4919.86 4683.14 4920.55 4681.51 4920.82C4660.04 4920.82 4642.37 4923.84 4628.5 4929.87C4614.91 4935.9 4608.12 4944.12 4608.12 4954.53ZM4706.38 4896.64C4700.41 4893.44 4694.23 4890 4687.84 4886.29C4664.35 4872.86 4642.91 4855.6 4623.52 4834.5C4603.85 4813.4 4588.28 4792.16 4576.81 4770.78C4565.07 4749.13 4555.92 4730.09 4549.36 4713.64C4547.84 4709.82 4546.42 4706.11 4545.12 4702.52C4547.96 4705.17 4550.88 4707.64 4553.89 4709.94C4567.48 4720.36 4581.34 4727.35 4595.48 4730.91C4620.49 4736.94 4644 4738.03 4666.02 4734.2C4688.31 4730.36 4708.69 4723.23 4727.18 4712.82C4745.94 4702.41 4762.38 4689.94 4776.52 4675.41C4782.4 4669.26 4787.83 4663 4792.82 4656.65C4794 4658.91 4795.2 4661.19 4796.4 4663.49C4807.38 4684.61 4816.19 4701.54 4822.83 4714.28L4816.07 4727.21C4779.37 4796.54 4744.03 4851.35 4710.05 4891.64C4709.82 4892.11 4708.6 4893.77 4706.38 4896.64ZM4715.86 4919C4715.12 4919.35 4714.54 4919.41 4714.13 4919.18C4720.93 4924.39 4728.54 4927.54 4736.96 4928.63C4737.8 4928.74 4738.63 4928.85 4739.46 4928.96C4737.32 4928.13 4735 4927.2 4732.49 4926.17C4724.66 4922.74 4719.12 4920.35 4715.86 4919ZM4837.93 4934.49C4821.82 4933.79 4806.75 4931.98 4792.72 4929.04C4773.05 4924.66 4755.57 4919.32 4740.28 4913.01C4736.21 4911.29 4732.01 4909.42 4727.68 4907.38C4737.18 4896.01 4751.42 4876.51 4770.4 4848.89C4801.44 4803.71 4823.95 4768.41 4837.93 4742.99C4851.98 4768.41 4874.6 4803.71 4905.79 4848.89C4924.66 4876.22 4938.87 4895.6 4948.41 4907.02C4943.84 4909.2 4939.41 4911.19 4935.13 4913.01C4919.91 4919.32 4902.51 4924.66 4882.94 4929.04C4868.97 4931.98 4853.97 4933.79 4837.93 4934.49ZM4935.48 4929.14C4936.77 4928.98 4938.07 4928.81 4939.38 4928.63C4947.85 4927.54 4955.5 4924.39 4962.33 4919.18C4961.83 4919.46 4961.08 4919.32 4960.07 4918.73C4956.95 4920.03 4951.22 4922.5 4942.88 4926.17C4940.2 4927.27 4937.74 4928.27 4935.48 4929.14ZM4969.74 4896.17C4975.42 4893.1 4981.28 4889.81 4987.32 4886.29C5010.7 4872.86 5032.04 4855.6 5051.34 4834.5C5070.91 4813.4 5086.4 4792.16 5097.82 4770.78C5109.51 4749.13 5118.62 4730.09 5125.14 4713.64C5126.15 4711.1 5127.11 4708.61 5128.02 4706.17C5126.48 4707.48 5124.92 4708.73 5123.33 4709.94C5109.68 4720.36 5095.75 4727.35 5081.54 4730.91C5056.42 4736.94 5032.79 4738.03 5010.67 4734.2C4988.27 4730.36 4967.79 4723.23 4949.22 4712.82C4930.37 4702.41 4913.85 4689.94 4899.64 4675.41C4893.63 4669.15 4888.09 4662.79 4883 4656.33C4881.77 4658.69 4880.53 4661.08 4879.27 4663.49C4868.38 4684.53 4859.64 4701.42 4853.04 4714.14L4856.14 4720.05L4859.9 4727.21C4896.78 4796.54 4932.28 4851.35 4966.42 4891.64C4966.64 4892.08 4967.75 4893.59 4969.74 4896.17ZM4837.93 4685.41C4851.77 4658.99 4860.93 4641.54 4865.41 4633.07L4866.13 4631.65C4865.69 4630.89 4865.25 4630.13 4864.82 4629.37C4855.81 4613.48 4849.93 4598.13 4847.2 4583.33C4841.47 4564.7 4841.19 4551.82 4846.38 4544.69C4850.48 4538.94 4856.08 4537.57 4863.18 4540.58C4870.01 4543.32 4873.42 4548.39 4873.42 4555.79C4873.42 4558.53 4872.74 4562.64 4871.38 4568.12C4869.74 4573.33 4868.92 4578.13 4868.92 4582.51C4868.64 4586.62 4869.87 4594.71 4872.6 4606.76C4873.32 4609.29 4874.12 4611.82 4875 4614.33C4901.32 4563.42 4926.12 4519.38 4949.4 4482.21C4975.77 4440.28 5006.21 4401.09 5040.74 4364.64C5043.8 4361.46 5046.47 4358.62 5048.74 4356.1C5029.16 4338.09 5009.23 4323.4 4988.96 4312.03C4963.28 4297.78 4938.02 4287.22 4913.16 4280.37C4890.92 4274.31 4869.22 4270.93 4848.04 4270.23C4844.7 4270.16 4841.33 4270.11 4837.93 4270.1C4834.62 4270.11 4831.34 4270.15 4828.08 4270.23C4806.94 4270.91 4785.27 4274.29 4763.06 4280.37C4738.32 4287.22 4713.18 4297.78 4687.63 4312.03C4667.07 4323.61 4646.88 4338.64 4627.05 4357.11C4629.12 4359.37 4631.49 4361.88 4634.17 4364.64C4668.85 4401.09 4699.44 4440.28 4725.94 4482.21C4749.39 4519.48 4774.38 4563.65 4800.9 4614.73C4801.83 4612.09 4802.67 4609.43 4803.43 4606.76C4806.15 4594.71 4807.37 4586.62 4807.1 4582.51C4807.1 4578.13 4806.28 4573.33 4804.65 4568.12C4803.29 4562.64 4802.61 4558.53 4802.61 4555.79C4802.61 4548.39 4806.01 4543.32 4812.81 4540.58C4819.87 4537.57 4825.45 4538.94 4829.52 4544.69C4834.69 4551.82 4834.42 4564.7 4828.71 4583.33C4825.99 4598.13 4820.15 4613.48 4811.18 4629.37L4810.96 4629.75C4810.86 4629.92 4810.76 4630.1 4810.66 4630.27C4810.36 4630.81 4810.04 4631.35 4809.73 4631.89L4810.33 4633.07C4814.83 4641.54 4824.03 4658.99 4837.93 4685.41ZM4786.46 4644.54C4770.86 4614.91 4757.51 4589.99 4746.42 4569.77C4733.04 4545.38 4719.11 4521.54 4704.63 4498.24C4689.06 4473.3 4669.13 4443.84 4644.82 4409.86C4631.74 4391.43 4621.43 4378.12 4613.89 4369.92L4613.42 4370.4C4589.22 4395.06 4567.75 4423.7 4548.99 4456.31C4540.09 4471.81 4532.83 4487.34 4527.21 4502.91C4518.43 4549.04 4521.25 4604.77 4535.66 4670.08C4540.54 4678.22 4546.07 4685.75 4552.26 4692.68C4567.21 4708.85 4584.2 4719.26 4603.22 4723.92C4627.69 4729.4 4650.93 4729.81 4672.95 4725.15C4694.97 4720.22 4714.81 4711.72 4732.48 4699.67C4750.42 4687.61 4765.51 4673.49 4777.74 4657.33C4780.89 4653.09 4783.8 4648.83 4786.46 4644.54ZM5061.95 4368.81C5054.36 4376.89 5043.75 4390.58 5030.14 4409.86C5005.94 4443.84 4986.1 4473.3 4970.6 4498.24C4956.2 4521.54 4942.33 4545.38 4929.01 4569.77C4918.03 4589.89 4904.82 4614.67 4889.39 4644.12C4892.14 4648.55 4895.15 4652.95 4898.41 4657.33C4910.7 4673.49 4925.86 4687.61 4943.89 4699.67C4961.64 4711.72 4981.58 4720.22 5003.7 4725.15C5025.83 4729.81 5049.18 4729.4 5073.76 4723.92C5092.88 4719.26 5109.95 4708.85 5124.97 4692.68C5129.39 4687.75 5133.48 4682.52 5137.23 4676.98C5137.74 4674.89 5138.2 4672.86 5138.6 4670.89C5153.55 4603.2 5156.13 4545.79 5146.34 4498.65C5145.52 4494.59 5144.6 4490.53 5143.56 4486.49C5139.15 4476.41 5134.04 4466.36 5128.25 4456.31C5109.4 4423.7 5087.83 4395.06 5063.52 4370.4C5062.99 4369.87 5062.47 4369.34 5061.95 4368.81ZM4640.33 4950.83C4628.37 4956.31 4621.84 4957.27 4620.76 4953.71C4619.94 4952.34 4620.62 4949.46 4622.8 4945.08C4625.24 4940.69 4627.01 4938.23 4628.1 4937.68C4628.91 4937.13 4630.14 4936.58 4631.77 4936.03C4644.54 4931.1 4657.18 4928.36 4669.69 4927.81C4675.94 4927.54 4677.16 4928.91 4673.36 4931.92C4663.57 4939.05 4652.56 4945.35 4640.33 4950.83ZM5036.48 4950.83C5048.5 4956.31 5055.05 4957.27 5056.14 4953.71C5056.96 4952.34 5056.28 4949.46 5054.1 4945.08C5051.64 4940.69 5049.86 4938.23 5048.77 4937.68C5047.95 4937.13 5046.72 4936.58 5045.08 4936.03C5032.25 4931.1 5019.54 4928.36 5006.98 4927.81C5000.7 4927.54 4999.47 4928.91 5003.29 4931.92C5013.13 4939.05 5024.19 4945.35 5036.48 4950.83ZM4723.32 5141.87C4717.41 5144.04 4714.29 5143.98 4713.97 5141.7C4713.97 5139.59 4715.28 5137.93 4717.9 5136.7C4720.57 5135.48 4723.98 5134.87 4728.12 5134.87C4728.43 5134.81 4728.75 5134.68 4729.06 5134.45C4729.43 5134.18 4729.85 5133.76 4730.32 5133.2C4730.79 5132.65 4731.16 5132.23 4731.42 5131.95C4731.68 5131.62 4732.1 5131.06 4732.67 5130.29C4733.25 5129.51 4733.56 5129.06 4733.62 5128.95C4740.16 5120.79 4746.97 5109.68 4754.05 5095.62C4759.13 5085.4 4762.3 5079.04 4763.55 5076.54C4769.31 5064.6 4774.71 5054.41 4779.74 5045.96C4784.82 5037.46 4790.69 5029.52 4797.34 5022.13C4799.07 5020.24 4800.14 5018.94 4800.56 5018.21L4798.12 5015.63C4792.2 5011.08 4786.02 5007.83 4779.58 5005.88C4773.14 5003.94 4765.91 5002.97 4757.9 5002.97C4753.34 5002.97 4748.65 5003.66 4743.83 5005.05C4739.06 5006.44 4734.22 5008.58 4729.3 5011.47C4724.42 5014.35 4719.66 5018.3 4715 5023.3C4710.33 5028.3 4706.2 5034.1 4702.58 5040.71C4699.12 5047.05 4696.95 5053.41 4696.06 5059.79C4695.22 5066.18 4695.48 5071.76 4696.85 5076.54C4698.26 5081.26 4700.38 5085.29 4703.21 5088.62C4706.09 5091.9 4709.37 5094.01 4713.03 5094.96C4717.75 5096.07 4722.22 5096.15 4726.47 5095.21C4730.71 5094.21 4734.53 5092.49 4737.94 5090.04C4741.4 5087.6 4744.3 5084.74 4746.66 5081.46C4749.02 5078.13 4750.67 5074.71 4751.61 5071.21C4752.13 5068.77 4752.37 5067.13 4752.32 5066.29C4752.32 5065.4 4752.16 5064.43 4751.85 5063.38C4751.58 5062.27 4751.45 5061.43 4751.45 5060.88C4751.45 5059.38 4752.11 5058.35 4753.42 5057.79C4754.78 5057.18 4755.85 5057.46 4756.64 5058.63C4757.63 5060.07 4757.58 5062.68 4756.48 5066.46C4755.96 5069.46 4754.83 5072.57 4753.1 5075.79C4751.37 5079.01 4749.15 5082.12 4746.42 5085.12C4743.7 5088.07 4740.53 5090.6 4736.92 5092.71C4733.36 5094.82 4729.43 5096.26 4725.13 5097.04C4720.89 5097.82 4716.36 5097.6 4711.54 5096.37C4708.82 5095.65 4706.14 5094.24 4703.52 5092.12C4700.91 5090.01 4698.6 5087.18 4696.61 5083.62C4694.62 5080.07 4693.18 5076.13 4692.29 5071.79C4691.45 5067.4 4691.48 5062.32 4692.37 5056.54C4693.31 5050.77 4695.25 5044.91 4698.18 5038.96C4701.27 5032.8 4705.17 5027.24 4709.89 5022.3C4714.6 5017.3 4719.58 5013.3 4724.82 5010.3C4730.11 5007.24 4735.48 5004.94 4740.92 5003.38C4746.37 5001.77 4751.61 5001.02 4756.64 5001.13C4760.25 5001.19 4763.03 5001.3 4764.97 5001.47C4766.9 5001.63 4770 5002.1 4774.24 5002.88C4778.53 5003.6 4782.78 5004.97 4786.97 5006.97C4791.21 5008.91 4795.43 5011.47 4799.62 5014.63L4801.5 5016.46C4801.61 5016.46 4802.6 5015.8 4804.49 5014.46C4806.43 5013.08 4808.73 5011.55 4811.4 5009.88C4814.07 5008.22 4816.25 5007.1 4817.92 5006.55C4822.22 5005.38 4824.42 5005.38 4824.52 5006.55C4824.52 5006.88 4824.34 5007.16 4823.97 5007.38C4823.61 5007.55 4823.03 5007.74 4822.24 5007.97C4821.46 5008.13 4820.83 5008.3 4820.36 5008.47C4818.47 5009.13 4815.93 5010.77 4812.74 5013.38C4809.54 5015.94 4807.16 5018.1 4805.59 5019.88C4810.04 5025.44 4813.58 5030.52 4816.19 5035.13C4818.87 5039.68 4820.91 5044.52 4822.32 5049.63C4823.74 5054.74 4824.39 5060.04 4824.29 5065.54C4824.18 5071.04 4823.4 5077.26 4821.93 5084.21C4820.83 5089.32 4818.84 5094.85 4815.96 5100.79C4813.13 5106.68 4809.31 5112.48 4804.49 5118.2C4799.72 5123.87 4794.72 5128.01 4789.48 5130.62C4789.27 5130.73 4788.09 5131.34 4785.94 5132.45C4783.85 5133.51 4782.59 5134.12 4782.17 5134.29C4781.75 5134.45 4780.52 5135.01 4778.48 5135.95C4776.44 5136.84 4775.02 5137.37 4774.24 5137.54C4773.45 5137.7 4772.01 5138.09 4769.92 5138.7C4767.82 5139.31 4766.09 5139.65 4764.73 5139.7C4763.37 5139.76 4761.54 5139.87 4759.23 5140.04C4756.93 5140.26 4754.75 5140.26 4752.71 5140.04C4750.67 5139.81 4748.31 5139.54 4745.64 5139.2C4743.02 5138.87 4740.3 5138.4 4737.47 5137.79C4737.15 5137.73 4736.6 5137.56 4735.82 5137.29C4735.03 5137.06 4734.46 5136.93 4734.09 5136.87C4733.77 5136.81 4733.25 5136.84 4732.52 5136.95L4732.05 5137.2L4730.79 5137.87C4730.26 5138.2 4729.69 5138.54 4729.06 5138.87C4728.43 5139.2 4727.78 5139.54 4727.1 5139.87C4726.41 5140.2 4725.81 5140.51 4725.29 5140.79C4724.76 5141.06 4724.32 5141.31 4723.95 5141.54L4723.32 5141.87ZM4738.8 5136.45C4744.72 5137.29 4749.93 5137.7 4754.44 5137.7C4759 5137.76 4763.16 5137.37 4766.93 5136.54C4770.7 5135.65 4774.05 5134.56 4776.99 5133.29C4779.97 5131.95 4783.33 5130.15 4787.04 5127.87C4791.55 5125.15 4795.66 5121.65 4799.38 5117.37C4803.15 5113.09 4806.14 5108.79 4808.34 5104.46C4810.59 5100.07 4812.34 5096.21 4813.6 5092.87C4814.86 5089.54 4815.72 5086.65 4816.19 5084.21C4819.08 5070.49 4819.57 5058.85 4817.69 5049.29C4815.85 5039.74 4811.22 5030.38 4803.78 5021.21C4802.78 5020.99 4799.96 5024.35 4795.29 5031.3C4790.63 5038.18 4786.81 5044.16 4783.82 5049.21C4781.05 5053.93 4778.38 5058.77 4775.81 5063.71C4773.24 5068.65 4770.05 5074.99 4766.22 5082.71C4762.45 5090.37 4760.02 5095.32 4758.92 5097.54C4756.3 5102.76 4751.74 5110.34 4745.25 5120.29C4738.75 5130.23 4735.14 5134.98 4734.4 5134.54C4735.71 5135.59 4737.18 5136.23 4738.8 5136.45ZM4716.41 5141.54C4716.62 5142.26 4717.88 5142.06 4720.18 5140.95C4722.54 5139.84 4724.66 5138.56 4726.55 5137.12C4727.28 5136.51 4727.04 5136.23 4725.84 5136.29C4723.43 5136.4 4720.99 5136.95 4718.53 5137.95C4718.22 5138.06 4717.98 5138.18 4717.82 5138.29C4717.62 5138.4 4717.27 5138.9 4716.8 5139.79C4716.38 5140.67 4716.25 5141.26 4716.41 5141.54ZM4875.28 5141.7C4875.6 5143.98 4878.71 5144.04 4884.63 5141.87L4885.26 5141.54C4885.63 5141.31 4886.07 5141.06 4886.6 5140.79C4887.12 5140.51 4887.72 5140.2 4888.4 5139.87C4889.09 5139.54 4889.74 5139.2 4890.37 5138.87C4891 5138.54 4891.57 5138.2 4892.1 5137.87L4893.35 5137.2L4893.83 5136.95C4894.14 5136.9 4894.42 5136.87 4894.66 5136.86C4894.97 5136.83 4895.22 5136.84 4895.4 5136.87C4895.76 5136.93 4896.34 5137.06 4897.13 5137.29C4897.91 5137.56 4898.46 5137.73 4898.78 5137.79C4901.6 5138.4 4904.33 5138.87 4906.95 5139.2C4909.62 5139.54 4911.98 5139.81 4914.02 5140.04C4916.06 5140.26 4918.24 5140.26 4920.54 5140.04C4922.84 5139.87 4924.68 5139.76 4926.04 5139.7C4927.4 5139.65 4929.13 5139.31 4931.23 5138.7C4933.32 5138.09 4934.76 5137.7 4935.55 5137.54C4936.33 5137.37 4937.75 5136.84 4939.79 5135.95C4940.56 5135.59 4941.22 5135.29 4941.76 5135.05C4942.14 5134.87 4942.46 5134.73 4942.73 5134.61L4942.94 5134.52L4943.11 5134.44C4943.27 5134.37 4943.4 5134.32 4943.48 5134.29C4943.9 5134.12 4945.16 5133.51 4947.25 5132.45C4949.4 5131.34 4950.58 5130.73 4950.79 5130.62C4956.03 5128.01 4961.03 5123.87 4965.8 5118.2C4970.62 5112.48 4974.44 5106.68 4977.27 5100.79C4980.15 5094.85 4982.14 5089.32 4983.24 5084.21C4984.71 5077.26 4985.49 5071.04 4985.6 5065.54C4985.7 5060.04 4985.05 5054.74 4983.63 5049.63C4982.22 5044.52 4980.17 5039.68 4977.5 5035.13C4974.88 5030.52 4971.35 5025.44 4966.9 5019.88C4968.47 5018.1 4970.85 5015.94 4974.05 5013.38C4977.24 5010.77 4979.78 5009.13 4981.67 5008.47C4982.14 5008.3 4982.77 5008.13 4983.55 5007.97C4984.34 5007.74 4984.91 5007.55 4985.28 5007.38C4985.65 5007.16 4985.83 5006.88 4985.83 5006.55C4985.73 5005.38 4983.53 5005.38 4979.23 5006.55C4977.56 5007.1 4975.38 5008.22 4972.71 5009.88C4970.04 5011.55 4967.73 5013.08 4965.8 5014.46C4963.91 5015.8 4962.92 5016.46 4962.81 5016.46L4960.92 5014.63C4956.73 5011.47 4952.52 5008.91 4948.28 5006.97C4944.08 5004.97 4939.84 5003.6 4935.55 5002.88C4931.3 5002.1 4928.21 5001.63 4926.28 5001.47C4924.34 5001.3 4921.56 5001.19 4917.95 5001.13C4912.92 5001.02 4907.68 5001.77 4902.23 5003.38C4896.79 5004.94 4891.42 5007.24 4886.13 5010.3C4880.89 5013.3 4875.91 5017.3 4871.2 5022.3C4866.48 5027.24 4862.58 5032.8 4859.49 5038.96C4856.56 5044.91 4854.62 5050.77 4853.68 5056.54C4852.79 5062.32 4852.76 5067.4 4853.6 5071.79C4854.49 5076.13 4855.93 5080.07 4857.92 5083.62C4859.91 5087.18 4862.21 5090.01 4864.83 5092.12C4867.45 5094.24 4870.12 5095.65 4872.85 5096.37C4877.67 5097.6 4882.2 5097.82 4886.44 5097.04C4890.74 5096.26 4894.66 5094.82 4898.23 5092.71C4901.84 5090.6 4905.01 5088.07 4907.73 5085.12C4910.46 5082.12 4912.68 5079.01 4914.41 5075.79C4916.14 5072.57 4917.27 5069.46 4917.79 5066.46C4918.89 5062.68 4918.94 5060.07 4917.95 5058.63C4917.16 5057.46 4916.09 5057.18 4914.73 5057.79C4913.42 5058.35 4912.76 5059.38 4912.76 5060.88C4912.76 5061.43 4912.89 5062.27 4913.15 5063.38C4913.47 5064.43 4913.63 5065.4 4913.63 5066.29C4913.68 5067.13 4913.44 5068.77 4912.92 5071.21C4911.98 5074.71 4910.33 5078.13 4907.97 5081.46C4905.61 5084.74 4902.7 5087.6 4899.25 5090.04C4895.84 5092.49 4892.02 5094.21 4887.78 5095.21C4883.53 5096.15 4879.06 5096.07 4874.34 5094.96C4870.67 5094.01 4867.4 5091.9 4864.52 5088.62C4861.69 5085.29 4859.57 5081.26 4858.16 5076.54C4856.79 5071.76 4856.53 5066.18 4857.37 5059.79C4858.26 5053.41 4860.43 5047.05 4863.89 5040.71C4867.51 5034.1 4871.64 5028.3 4876.31 5023.3C4880.97 5018.3 4885.73 5014.35 4890.6 5011.47C4895.53 5008.58 4900.37 5006.44 4905.14 5005.05C4909.96 5003.66 4914.65 5002.97 4919.2 5002.97C4927.22 5002.97 4934.45 5003.94 4940.89 5005.88C4947.33 5007.83 4953.51 5011.08 4959.43 5015.63L4961.87 5018.21C4961.45 5018.94 4960.37 5020.24 4958.65 5022.13C4951.99 5029.52 4946.13 5037.46 4941.05 5045.96C4936.02 5054.41 4930.62 5064.6 4924.86 5076.54C4923.6 5079.04 4920.44 5085.4 4915.35 5095.62C4908.28 5109.68 4901.47 5120.79 4894.93 5128.95C4894.87 5129.06 4894.56 5129.51 4893.98 5130.29C4893.41 5131.06 4892.99 5131.62 4892.73 5131.95C4892.46 5132.23 4892.1 5132.65 4891.63 5133.2C4891.15 5133.76 4890.74 5134.18 4890.37 5134.45C4890.05 5134.68 4889.74 5134.81 4889.43 5134.87C4885.29 5134.87 4881.88 5135.48 4879.21 5136.7C4876.59 5137.93 4875.28 5139.59 4875.28 5141.7ZM4915.75 5137.7C4911.24 5137.7 4906.03 5137.29 4900.11 5136.45C4898.49 5136.23 4897.02 5135.59 4895.71 5134.54C4896.45 5134.98 4900.06 5130.23 4906.55 5120.29C4913.05 5110.34 4917.61 5102.76 4920.23 5097.54C4921.33 5095.32 4923.76 5090.37 4927.53 5082.71C4931.36 5074.99 4934.55 5068.65 4937.12 5063.71C4939.68 5058.77 4942.36 5053.93 4945.13 5049.21C4948.12 5044.16 4951.94 5038.18 4956.6 5031.3C4961.27 5024.35 4964.09 5020.99 4965.09 5021.21C4972.53 5030.38 4977.16 5039.74 4979 5049.29C4980.88 5058.85 4980.38 5070.49 4977.5 5084.21C4977.03 5086.65 4976.17 5089.54 4974.91 5092.87C4973.65 5096.21 4971.9 5100.07 4969.65 5104.46C4967.45 5108.79 4964.46 5113.09 4960.69 5117.37C4956.97 5121.65 4952.86 5125.15 4948.35 5127.87C4944.63 5130.15 4941.28 5131.95 4938.3 5133.29C4935.36 5134.56 4932.01 5135.65 4928.24 5136.54C4924.47 5137.37 4920.3 5137.76 4915.75 5137.7ZM4881.49 5140.95C4879.19 5142.06 4877.93 5142.26 4877.72 5141.54C4877.56 5141.26 4877.69 5140.67 4878.11 5139.79C4878.58 5138.9 4878.92 5138.4 4879.13 5138.29C4879.29 5138.18 4879.53 5138.06 4879.84 5137.95C4882.3 5136.95 4884.74 5136.4 4887.15 5136.29C4888.35 5136.23 4888.59 5136.51 4887.85 5137.12C4885.97 5138.56 4883.85 5139.84 4881.49 5140.95ZM5193.26 4985.47L5271.15 4617.6C5275.92 4594.57 5279.29 4574.37 5281.25 4557C5283.2 4539.62 5284.07 4526.15 5283.85 4516.59C5283.64 4506.82 5282.12 4497.91 5279.29 4489.87C5276.47 4481.84 5274.08 4476.52 5272.12 4473.91C5270.17 4471.08 5267.02 4467.17 5262.67 4462.18L5264.63 4450.77H5543.58C5565.74 4450.77 5586.16 4453.71 5604.84 4459.57C5623.74 4465.22 5640.04 4473.47 5653.72 4484.34C5667.63 4495.2 5677.4 4509.53 5683.05 4527.34C5688.92 4544.94 5689.57 4564.82 5685.01 4586.97L5593.76 5016.75C5589.2 5038.9 5580.18 5058.78 5566.71 5076.37C5553.46 5094.18 5537.6 5108.52 5519.14 5119.38C5500.89 5130.24 5481.12 5138.5 5459.83 5144.15C5438.54 5150.01 5416.81 5152.94 5394.65 5152.94H5109.19L5111.14 5141.54C5147.2 5125.68 5174.58 5073.66 5193.26 4985.47ZM5466.02 4490.85L5333.39 5112.87H5344.47H5361.09C5364.56 5112.87 5368.91 5112.54 5374.12 5111.89C5379.55 5111.24 5383.25 5110.37 5385.2 5109.28C5387.16 5108.2 5389.76 5106.35 5393.02 5103.74C5396.5 5101.14 5398.89 5098.09 5400.19 5094.62C5401.71 5091.36 5403.56 5086.8 5405.73 5080.93C5408.12 5075.29 5410.08 5069.1 5411.6 5062.36C5413.34 5055.63 5415.29 5047.26 5417.46 5037.27L5517.51 4566.44C5519.24 4557.54 5520.66 4550.04 5521.74 4543.96C5522.83 4537.66 5523.7 4531.8 5524.35 4526.37C5525 4520.72 5525.11 4516.27 5524.68 4513.01C5524.46 4509.75 5523.92 4506.6 5523.05 4503.56C5522.18 4500.52 5520.77 4498.45 5518.81 4497.37C5517.07 4496.07 5514.9 4494.76 5512.29 4493.46C5509.69 4492.16 5506.54 4491.5 5502.84 4491.5C5499.37 4491.5 5495.46 4491.29 5491.11 4490.85C5486.77 4490.42 5481.77 4490.42 5476.12 4490.85H5466.02ZM4415.85 4617.6L4493.74 4985.47C4512.42 5073.66 4539.8 5125.68 4575.86 5141.54L4577.81 5152.94H4292.35C4270.19 5152.94 4248.46 5150.01 4227.17 5144.15C4205.88 5138.5 4186.11 5130.24 4167.86 5119.38C4149.4 5108.52 4133.54 5094.18 4120.29 5076.37C4106.82 5058.78 4097.8 5038.9 4093.24 5016.75L4001.99 4586.97C3997.43 4564.82 3998.08 4544.94 4003.95 4527.34C4009.6 4509.53 4019.37 4495.2 4033.28 4484.34C4046.96 4473.47 4063.26 4465.22 4082.16 4459.57C4100.84 4453.71 4121.26 4450.77 4143.42 4450.77H4422.37L4424.33 4462.18C4419.98 4467.17 4416.83 4471.08 4414.88 4473.91C4412.92 4476.52 4410.53 4481.84 4407.71 4489.87C4404.88 4497.91 4403.36 4506.82 4403.15 4516.59C4402.93 4526.15 4403.8 4539.62 4405.75 4557C4407.71 4574.37 4411.08 4594.57 4415.85 4617.6ZM4353.61 5112.87L4220.98 4490.85H4210.88C4205.23 4490.42 4200.23 4490.42 4195.89 4490.85C4191.54 4491.29 4187.63 4491.5 4184.16 4491.5C4180.46 4491.5 4177.31 4492.16 4174.71 4493.46C4172.1 4494.76 4169.93 4496.07 4168.19 4497.37C4166.23 4498.45 4164.82 4500.52 4163.95 4503.56C4163.08 4506.6 4162.54 4509.75 4162.32 4513.01C4161.89 4516.27 4162 4520.72 4162.65 4526.37C4163.3 4531.8 4164.17 4537.66 4165.26 4543.96C4166.34 4550.04 4167.76 4557.54 4169.49 4566.44L4269.54 5037.27C4271.71 5047.26 4273.66 5055.63 4275.4 5062.36C4276.92 5069.1 4278.88 5075.29 4281.27 5080.93C4283.44 5086.8 4285.29 5091.36 4286.81 5094.62C4288.11 5098.09 4290.5 5101.14 4293.98 5103.74C4297.24 5106.35 4299.84 5108.2 4301.8 5109.28C4303.75 5110.37 4307.45 5111.24 4312.88 5111.89C4318.09 5112.54 4322.44 5112.87 4325.91 5112.87H4342.53H4353.61Z" fill="white"/>
</svg>
